<svg width="65" height="65" viewBox="0 0 65 65" fill="none" xmlns="http://www.w3.org/2000/svg">
<path d="M32.5 0C14.5798 0 0 14.5798 0 32.5C0 50.4202 14.5798 65 32.5 65C50.4216 65 65 50.4202 65 32.5C65 14.5798 50.4216 0 32.5 0ZM46.5923 38.9082C49.7533 41.7145 50.4103 42.7163 50.5177 42.8873C51.8276 44.9645 49.0651 45.2174 49.0651 45.2174H43.2434C43.2434 45.2174 41.8261 45.2329 40.6151 44.4303C38.6411 43.1374 36.5738 40.6307 35.1212 41.0659C33.9017 41.4304 33.913 43.078 33.913 44.4869C33.913 44.9913 33.4792 45.2174 32.5 45.2174C31.5208 45.2174 31.1138 45.2174 30.68 45.2174C27.4908 45.2174 24.0302 44.1435 20.5782 40.536C15.6947 35.4363 11.4117 25.1635 11.4117 25.1635C11.4117 25.1635 11.1588 24.6463 11.4343 24.3312C11.7466 23.9779 12.5959 24.0232 12.5959 24.0232L18.241 24.0217C18.241 24.0217 18.7723 24.1221 19.1538 24.3905C19.4689 24.611 19.6441 25.0321 19.6441 25.0321C19.6441 25.0321 20.5923 28.1634 21.8004 30.16C24.1602 34.0572 25.2582 34.1561 26.0593 33.7364C27.2293 33.1288 26.8478 28.9858 26.8478 28.9858C26.8478 28.9858 26.9001 27.2067 26.2897 26.414C25.8191 25.8008 24.919 25.4743 24.5262 25.4235C24.2083 25.3825 24.7396 24.8258 25.4164 24.5078C26.3208 24.1051 27.5515 24.002 29.6739 24.0217C31.3258 24.0373 31.802 24.1362 32.4463 24.2846C34.3949 24.7339 33.913 25.9195 33.913 30.0823C33.913 31.4162 33.7293 33.2913 34.7354 33.913C35.1692 34.1815 36.6558 34.5093 39.301 30.2137C40.5572 28.1761 41.5562 24.7961 41.5562 24.7961C41.5562 24.7961 41.7625 24.4245 42.0833 24.2408C42.4111 24.0528 42.4012 24.0571 42.8505 24.0571C43.2999 24.0571 47.8061 24.0217 48.7952 24.0217C49.7829 24.0217 50.7099 24.0104 50.8696 24.5898C51.0985 25.4221 50.1404 28.2736 47.7128 31.3682C43.7238 36.4466 43.2815 35.9718 46.5923 38.9082Z" fill="#FED4CE"/>
</svg>
