<svg width="65" height="65" viewBox="0 0 65 65" fill="none" xmlns="http://www.w3.org/2000/svg">
<path fill-rule="evenodd" clip-rule="evenodd" d="M0.5 32.75C0.5 14.9389 14.9389 0.5 32.75 0.5C50.5611 0.5 65 14.9389 65 32.75C65 50.5611 50.5611 65 32.75 65C14.9389 65 0.5 50.5611 0.5 32.75ZM32.7516 15.55C28.0803 15.55 27.4941 15.5704 25.6594 15.6539C23.8283 15.7377 22.5785 16.0277 21.4848 16.453C20.3535 16.8923 19.3939 17.48 18.4379 18.4364C17.4811 19.3925 16.8933 20.352 16.4526 21.4829C16.0262 22.577 15.736 23.8272 15.6536 25.6576C15.5715 27.4923 15.55 28.0789 15.55 32.7501C15.55 37.4214 15.5708 38.0059 15.6539 39.8406C15.7381 41.6717 16.028 42.9215 16.453 44.0152C16.8927 45.1465 17.4803 46.1061 18.4368 47.0621C19.3925 48.0189 20.352 48.608 21.4827 49.0474C22.577 49.4727 23.8272 49.7625 25.658 49.8464C27.4927 49.93 28.0786 49.9504 32.7495 49.9504C37.4211 49.9504 38.0055 49.93 39.8403 49.8464C41.6713 49.7625 42.9226 49.4727 44.0171 49.0474C45.148 48.608 46.1061 48.0189 47.0617 47.0621C48.0185 46.1061 48.6062 45.1465 49.047 44.0156C49.4699 42.9215 49.7601 41.6713 49.8461 39.841C49.9285 38.0062 49.95 37.4214 49.95 32.7501C49.95 28.0789 49.9285 27.4927 49.8461 25.658C49.7601 23.8268 49.4699 22.577 49.047 21.4833C48.6062 20.352 48.0185 19.3925 47.0617 18.4364C46.105 17.4796 45.1482 16.892 44.016 16.453C42.9194 16.0277 41.6689 15.7377 39.8377 15.6539C38.003 15.5704 37.419 15.55 32.7462 15.55H32.7516Z" fill="#FED4CE"/>
<path fill-rule="evenodd" clip-rule="evenodd" d="M31.2086 18.6493C31.6666 18.6486 32.1776 18.6493 32.7516 18.6493C37.344 18.6493 37.8884 18.6658 39.7019 18.7482C41.3789 18.8249 42.2892 19.1051 42.8955 19.3405C43.6981 19.6523 44.2704 20.0249 44.872 20.6269C45.474 21.2289 45.8467 21.8023 46.1592 22.6051C46.3946 23.2105 46.6752 24.1208 46.7515 25.7978C46.8339 27.6109 46.8519 28.1557 46.8519 32.7459C46.8519 37.3362 46.8339 37.8809 46.7515 39.6941C46.6748 41.3711 46.3946 42.2813 46.1592 42.8868C45.8474 43.6896 45.474 44.2611 44.872 44.8628C44.27 45.4648 43.6985 45.8374 42.8955 46.1492C42.2898 46.3857 41.3789 46.6652 39.7019 46.7419C37.8888 46.8243 37.344 46.8421 32.7516 46.8421C28.1588 46.8421 27.6145 46.8243 25.8014 46.7419C24.1244 46.6645 23.2141 46.3842 22.6075 46.1488C21.8048 45.837 21.2314 45.4644 20.6294 44.8624C20.0274 44.2604 19.6548 43.6885 19.3423 42.8855C19.1069 42.2798 18.8263 41.3697 18.75 39.6927C18.6675 37.8795 18.6511 37.3348 18.6511 32.7416C18.6511 28.1484 18.6675 27.6066 18.75 25.7935C18.8266 24.1165 19.1069 23.2062 19.3423 22.5999C19.6541 21.7973 20.0274 21.2239 20.6294 20.6219C21.2314 20.0199 21.8048 19.6473 22.6075 19.3348C23.2138 19.0983 24.1244 18.8188 25.8014 18.7418C27.3881 18.6701 28.003 18.6486 31.2086 18.645V18.6493ZM41.9329 21.5052C40.7934 21.5052 39.8689 22.4288 39.8689 23.5685C39.8689 24.708 40.7934 25.6325 41.9329 25.6325C43.0724 25.6325 43.9969 24.708 43.9969 23.5685C43.9969 22.429 43.0724 21.5052 41.9329 21.5052ZM32.7516 23.9168C27.8735 23.9168 23.9186 27.8719 23.9186 32.7498C23.9186 37.6279 27.8735 41.5811 32.7516 41.5811C37.6297 41.5811 41.5832 37.6279 41.5832 32.7498C41.5832 27.8719 37.6297 23.9168 32.7516 23.9168Z" fill="#FED4CE"/>
<path fill-rule="evenodd" clip-rule="evenodd" d="M32.7516 27.0166C35.9179 27.0166 38.485 29.5834 38.485 32.75C38.485 35.9163 35.9179 38.4834 32.7516 38.4834C29.5849 38.4834 27.0182 35.9163 27.0182 32.75C27.0182 29.5834 29.5849 27.0166 32.7516 27.0166Z" fill="#FED4CE"/>
</svg>
