<svg width="64" height="65" viewBox="0 0 64 65" fill="none" xmlns="http://www.w3.org/2000/svg">
<path d="M32 0.5C49.6733 0.5 64 14.8267 64 32.5C64 50.1733 49.6733 64.5 32 64.5C14.3267 64.5 0 50.1733 0 32.5C0 14.8267 14.3267 0.5 32 0.5ZM43.0387 45.544C43.6267 43.7387 46.3853 25.74 46.7253 22.1933C46.828 21.1187 46.4893 20.4053 45.824 20.0867C45.02 19.7 43.8293 19.8933 42.4467 20.392C40.552 21.0747 16.3267 31.3613 14.9267 31.956C13.6 32.52 12.344 33.1347 12.344 34.0253C12.344 34.652 12.716 35.004 13.74 35.3693C14.8053 35.7493 17.4893 36.5627 19.0747 37C20.6013 37.4213 22.3387 37.056 23.312 36.4507C24.344 35.8093 36.2587 27.8373 37.1133 27.1387C37.968 26.44 38.6493 27.3347 37.9507 28.0347C37.252 28.7333 29.0747 36.6707 27.996 37.7693C26.6867 39.104 27.616 40.4867 28.4947 41.04C29.4973 41.672 36.712 46.5107 37.7987 47.2867C38.8853 48.0627 39.9867 48.4147 40.996 48.4147C42.0053 48.4147 42.536 47.0867 43.0387 45.544Z" fill="#FED4CE"/>
</svg>
