<svg width="107" height="50" viewBox="0 0 107 50" fill="none" xmlns="http://www.w3.org/2000/svg">
<path d="M24.9426 0C11.1895 0 0 11.1895 0 24.9426C0 38.6957 11.1895 49.8851 24.9426 49.8851C38.6968 49.8851 49.8851 38.6957 49.8851 24.9426C49.8851 11.1895 38.6968 0 24.9426 0ZM35.7579 29.8606C38.1838 32.0143 38.6881 32.7832 38.7705 32.9144C39.7758 34.5086 37.6557 34.7027 37.6557 34.7027H33.1877C33.1877 34.7027 32.1 34.7146 31.1706 34.0987C29.6556 33.1064 28.0691 31.1825 26.9542 31.5166C26.0184 31.7964 26.027 33.0608 26.027 34.142C26.027 34.5292 25.6941 34.7027 24.9426 34.7027C24.191 34.7027 23.8787 34.7027 23.5458 34.7027C21.0982 34.7027 18.4423 33.8785 15.793 31.1099C12.0451 27.1961 8.75809 19.3121 8.75809 19.3121C8.75809 19.3121 8.56398 18.9151 8.77545 18.6733C9.01511 18.4022 9.66687 18.4369 9.66687 18.4369L13.9993 18.4358C13.9993 18.4358 14.407 18.5128 14.6998 18.7189C14.9417 18.888 15.0762 19.2112 15.0762 19.2112C15.0762 19.2112 15.8038 21.6144 16.731 23.1467C18.5421 26.1376 19.3847 26.2136 19.9996 25.8915C20.8975 25.4252 20.6047 22.2455 20.6047 22.2455C20.6047 22.2455 20.6449 20.8802 20.1764 20.2718C19.8152 19.8011 19.1244 19.5506 18.823 19.5116C18.579 19.4801 18.9867 19.0529 19.5062 18.8089C20.2002 18.4998 21.1448 18.4206 22.7736 18.4358C24.0414 18.4477 24.4068 18.5237 24.9014 18.6375C26.3968 18.9824 26.027 19.8922 26.027 23.0871C26.027 24.1108 25.886 25.5499 26.6582 26.027C26.9911 26.2331 28.132 26.4847 30.1621 23.1879C31.1262 21.6241 31.8929 19.0301 31.8929 19.0301C31.8929 19.0301 32.0512 18.7449 32.2974 18.6039C32.549 18.4597 32.5414 18.4629 32.8862 18.4629C33.2311 18.4629 36.6894 18.4358 37.4486 18.4358C38.2066 18.4358 38.918 18.4271 39.0405 18.8718C39.2162 19.5105 38.481 21.6989 36.6179 24.0739C33.5564 27.9715 33.217 27.6071 35.7579 29.8606Z" fill="#FED4CE"/>
<path d="M82.0574 0C95.833 0 107 11.167 107 24.9426C107 38.7181 95.833 49.8851 82.0574 49.8851C68.2819 49.8851 57.1149 38.7181 57.1149 24.9426C57.1149 11.167 68.2819 0 82.0574 0ZM90.6616 35.1098C91.1199 33.7026 93.2702 19.6735 93.5352 16.909C93.6152 16.0713 93.3512 15.5153 92.8326 15.2669C92.2059 14.9655 91.2779 15.1162 90.2001 15.5049C88.7233 16.037 69.8408 24.055 68.7495 24.5185C67.7155 24.9582 66.7365 25.4373 66.7365 26.1315C66.7365 26.62 67.0264 26.8943 67.8246 27.1791C68.655 27.4753 70.747 28.1092 71.9827 28.4501C73.1727 28.7785 74.5269 28.4938 75.2855 28.0219C76.0899 27.522 85.3769 21.3082 86.043 20.7636C86.7092 20.2191 87.2403 20.9164 86.6957 21.462C86.1511 22.0066 79.7773 28.1934 78.9365 29.0498C77.9159 30.0901 78.6403 31.1678 79.3252 31.5991C80.1067 32.0917 85.7302 35.8633 86.5772 36.4681C87.4242 37.073 88.2827 37.3473 89.0694 37.3473C89.8561 37.3473 90.2698 36.3122 90.6616 35.1098Z" fill="#FED4CE"/>
</svg>
