<svg width="65" height="65" viewBox="0 0 65 65" fill="none" xmlns="http://www.w3.org/2000/svg">
<path fill-rule="evenodd" clip-rule="evenodd" d="M42.4915 40.6405C42.1927 40.6405 41.9777 40.7243 41.8465 40.9028C41.7164 41.0705 41.653 41.3586 41.653 41.7585V42.7217H43.3118V41.7585C43.3118 41.3586 43.2451 41.0705 43.1129 40.9028C42.9882 40.7243 42.7764 40.6405 42.4915 40.6405ZM36.0222 40.6072C36.2737 40.6072 36.4705 40.6889 36.607 40.8544C36.7392 41.02 36.8059 41.2662 36.8059 41.5876V46.5154C36.8059 46.8228 36.7489 47.0389 36.6414 47.1722C36.5339 47.3087 36.3662 47.3754 36.1361 47.3754C35.977 47.3754 35.8276 47.3399 35.6836 47.2722C35.5384 47.2055 35.389 47.0884 35.2374 46.9357V40.9899C35.3654 40.8587 35.4944 40.7609 35.6244 40.6986C35.7545 40.6351 35.8867 40.6072 36.0222 40.6072ZM41.6541 44.2074V46.0048C41.6541 46.5079 41.7154 46.8562 41.8368 47.0518C41.9637 47.2464 42.1733 47.341 42.4733 47.341C42.7839 47.341 43.0011 47.2593 43.1247 47.0948C43.2473 46.9303 43.3128 46.5691 43.3128 46.0058V45.5704H45.2425V46.0607C45.2425 47.04 45.0092 47.7764 44.5362 48.2741C44.0686 48.7675 43.3655 49.0126 42.4313 49.0126C41.5918 49.0126 40.9285 48.7525 40.4458 48.2268C39.9642 47.7043 39.7191 46.983 39.7191 46.0617V41.7768C39.7191 40.9512 39.9868 40.2739 40.5168 39.7536C41.0467 39.2323 41.7294 38.9721 42.5711 38.9721C43.43 38.9721 44.0901 39.214 44.5523 39.6967C45.0135 40.1783 45.2425 40.8716 45.2425 41.7768V44.2106H41.6541V44.2074ZM38.2947 48.3321C38.0034 48.6933 37.5756 48.8707 37.0187 48.8707C36.65 48.8707 36.3242 48.8041 36.0383 48.6643C35.7513 48.5256 35.4804 48.3128 35.2364 48.0182V48.7503H33.34V35.8159H35.2364V39.9815C35.4911 39.6913 35.7577 39.4677 36.0405 39.3183C36.3275 39.1656 36.6145 39.0914 36.9058 39.0914C37.5014 39.0914 37.954 39.2946 38.2657 39.6988C38.5818 40.1062 38.7366 40.7018 38.7366 41.4833V46.7788C38.7366 47.4538 38.5893 47.9709 38.2947 48.3321ZM30.0549 48.7503V47.7011C29.7055 48.0892 29.3475 48.3848 28.9702 48.5848C28.595 48.7901 28.2327 48.8879 27.8801 48.8879C27.4447 48.8879 27.1222 48.7492 26.8987 48.4622C26.6826 48.1763 26.5708 47.7548 26.5708 47.184V39.2054H28.4456V46.5251C28.4456 46.7519 28.4854 46.9142 28.5606 47.0163C28.6434 47.1185 28.7713 47.1679 28.9455 47.1679C29.0831 47.1679 29.2594 47.1012 29.4701 46.9658C29.6818 46.8314 29.8732 46.6616 30.0527 46.4552V39.2054H31.9275V48.7492L30.0549 48.7503ZM23.5597 37.695V48.7503H21.4441V37.695H19.2576V35.8159H25.7463V37.695H23.5597ZM32.2435 31.6514C32.2435 31.6503 45.2296 31.6707 46.7711 33.2101C48.318 34.7527 48.3352 42.3627 48.3352 42.4067C48.3352 42.4067 48.3223 50.0575 46.7711 51.6044C45.2296 53.1417 32.2435 53.175 32.2435 53.175C32.2435 53.175 19.2586 53.1417 17.7139 51.6034C16.168 50.0607 16.1648 42.4637 16.1648 42.4057C16.1648 42.3616 16.1691 34.7516 17.7139 33.209C19.2597 31.6707 32.2435 31.6503 32.2435 31.6514ZM42.484 27.6491H40.3706V26.4881C39.9857 26.9149 39.5794 27.2439 39.1558 27.4653C38.7344 27.6889 38.327 27.8007 37.9303 27.8007C37.438 27.8007 37.0735 27.6438 36.8263 27.3309C36.5801 27.0181 36.4554 26.5494 36.4554 25.9216V17.1367H38.5646V25.196C38.5646 25.4443 38.6129 25.6249 38.7011 25.7356C38.7871 25.8474 38.9333 25.9033 39.13 25.9033C39.2837 25.9033 39.4815 25.8292 39.7191 25.6819C39.9556 25.5346 40.1738 25.3465 40.3695 25.1154V17.1367H42.4829L42.484 27.6491ZM31.0105 25.8571C31.16 26.0151 31.375 26.0925 31.6555 26.0925C31.9415 26.0925 32.1672 26.0119 32.3371 25.8528C32.5059 25.6894 32.5897 25.468 32.5897 25.1884V19.4619C32.5897 19.2319 32.5037 19.0459 32.3306 18.904C32.1586 18.7632 31.9329 18.6933 31.6555 18.6933C31.3965 18.6933 31.1879 18.7632 31.0256 18.904C30.8665 19.0459 30.7837 19.2319 30.7837 19.4619V25.1884C30.7837 25.4755 30.8611 25.6969 31.0105 25.8571ZM29.4636 17.5957C30.0312 17.1131 30.7977 16.8712 31.7555 16.8712C32.6284 16.8712 33.3465 17.126 33.9066 17.6355C34.4624 18.144 34.7419 18.7997 34.7419 19.6006V25.0304C34.7419 25.9291 34.4677 26.6333 33.9227 27.146C33.3712 27.6577 32.6198 27.9136 31.6588 27.9136C30.7364 27.9136 29.9957 27.6491 29.44 27.1224C28.8885 26.5935 28.6101 25.8829 28.6101 24.9896V19.5415C28.609 18.7255 28.8928 18.0773 29.4636 17.5957ZM22.8566 13.4H20.4605L23.292 22.0032V27.6491H25.671V21.7366L28.4381 13.4H26.0193L24.5508 19.0954H24.4014L22.8566 13.4ZM32.25 65C14.4394 65 0 50.5606 0 32.75C0 14.9383 14.4394 0.5 32.25 0.5C50.0606 0.5 64.5 14.9383 64.5 32.75C64.5 50.5606 50.0606 65 32.25 65Z" fill="#FED4CE"/>
</svg>
