<svg width="59" height="60" viewBox="0 0 59 60" fill="none" xmlns="http://www.w3.org/2000/svg">
<path d="M6.56377 35.2346C7.29392 35.2364 8.01724 35.0892 8.69222 34.8012C9.3672 34.5133 9.98056 34.0903 10.4971 33.5566L29.5049 13.899L48.5128 33.5464C49.5776 34.507 50.9554 35.0137 52.3676 34.9639C53.7798 34.9142 55.1211 34.3117 56.1203 33.2784C57.1194 32.2451 57.702 30.858 57.7501 29.3975C57.7982 27.937 57.3083 26.5121 56.3794 25.4108L33.4383 1.67525C32.3922 0.602139 30.9784 0 29.5049 0C28.0315 0 26.6177 0.602139 25.5716 1.67525L2.6206 25.4108C1.83973 26.2153 1.30739 27.2414 1.09105 28.359C0.87472 29.4767 0.984134 30.6357 1.40543 31.689C1.82672 32.7423 2.54093 33.6425 3.4575 34.2755C4.37408 34.9085 5.45176 35.2459 6.55393 35.2447L6.56377 35.2346Z" fill="#FED5D1"/>
<path d="M33.4382 25.4108C32.3921 24.3377 30.9784 23.7356 29.5049 23.7356C28.0315 23.7356 26.6177 24.3377 25.5716 25.4108L2.62058 49.1363C2.07542 49.6637 1.63841 50.2991 1.33558 51.0048C1.03275 51.7104 0.870274 52.4719 0.857829 53.2438C0.845385 54.0157 0.983223 54.7823 1.26314 55.498C1.54306 56.2137 1.95934 56.8639 2.4872 57.4098C3.01506 57.9557 3.64372 58.3862 4.33577 58.6757C5.02781 58.9652 5.7691 59.1078 6.5155 59.0949C7.26191 59.082 7.99819 58.914 8.68051 58.6008C9.36284 58.2876 9.97728 57.8357 10.4872 57.2719L29.5049 37.6142L48.5127 57.282C49.0227 57.8458 49.6372 58.2978 50.3195 58.611C51.0018 58.9242 51.7381 59.0922 52.4845 59.105C53.2309 59.1179 53.9722 58.9754 54.6642 58.6859C55.3563 58.3964 55.9849 57.9659 56.5128 57.42C57.0407 56.8741 57.4569 56.2239 57.7369 55.5082C58.0168 54.7925 58.1546 54.0259 58.1422 53.254C58.1297 52.482 57.9673 51.7206 57.6644 51.0149C57.3616 50.3093 56.9246 49.6739 56.3794 49.1464L33.4382 25.4108Z" fill="#FED5D1"/>
</svg>
